<svg version="1.2" xmlns="http://www.w3.org/2000/svg" viewBox="0 0 1080 1080" width="1080" height="1080"><style>.a{fill:#09f}</style><path fill-rule="evenodd" class="a" d="m506.6 257.4q1.2 10.8 2.5 20.6 1.9 9.5 3.5 18.9 14.8-23.7 29.7-46.7 14.8-23.4 29.7-47.1 2.5-3.1 5.6-7.6 4.2-4.4 6.7-7.6 3.1-4.7 6.9-9.7 3.8-5.1 9.2-12.7 13.3-19.9 28.1-40.1 15.5-19.9 33.5-36.6 18-17.1 39.8-29.4 21.8-12.7 48.3-17.4 48.7 5.4 82.2 27.5 33.8 21.5 55.9 53.7l54 58.7q21.5 24.1 34.8 55.6 13.5 31 20.5 64.8 7.6 34.1 9.1 69.2 2.3 34.7 0.4 66 0 6.3-1 14.5 0 8.3-1.2 15.2-1.3 10.1-1.9 19.6-1 9.2-2.9 19.3 0 3.8-1.3 8.2-0.6 3.8-0.6 6.9-3.5 19.9-6 39.5-2.8 19.6-5.4 39.5-3.4 41.7-0.6 83.7 3.8 42 9.2 85l-1.3-1.3 2.5 13.3q6 45.2 9.8 89.1 4.1 43.6 1.9 86.9l-0.6 8.2q-7.3 16.7-19.3 30-12.3 12.3-27.8 21.2-14.5 8.8-31.2 13.5-16.5 5.1-32.6 6.7h-8.2q-5.7 0-11.7 0.6-5.7 0-12.6 0-10.8 0-23.1-1.6-12-1.9-24.6-5-2.6-2.6-5.7-4.5-2.5-2.5-5.1-5l-61.6-68.2h-1.2q-10.8-7.6-17.7-15.2-7-8.2-11.4-16.4-4.4-8.2-6.9-16.5-2.6-8.2-5.1-16.4 0-1.3-0.6-1.9-0.7-0.6-0.7-1.2-0.6-1.3-0.6-4.5-8.5-37.6-15.5-76.7-6-39.5-9.1-79.3-6.4 17-13.6 34.7-6.3 17.4-11.7 34.5-8.9 19.9-16.8 38.8-7.2 18-14.2 35.7-0.6 2.5-1.9 5.1-1.2 1.9-2.5 5h1.3l-1.6 1.9q0 1.3-0.6 1.3-5.1 11-12.7 22.4-7.2 11.4-16.7 20.5-9.8 9.5-21.8 16.5-12.3 6-27.5 7.2-2.5 0-6.3 0.7-3.5 0.6-6 0.6-28.5-0.3-52.8-11.7-23.4-12-41.4-31.6l-13.2-14.5q1.2 1.9 1.9 3.8 1.2 1.2 2.5 3.1l-32.2-36.6q0.6 11.7 0.6 24.3-0.3 12 1 25.9 0 3.8 0 10.1 0 5.7-1.3 11.1-1.6 18.3-7.9 36.6-6.6 18-18 33.2-11.1 14.2-27.8 23.7-15.8 9.2-37 9.2-4.4 0-7.6 0-2.5-0.7-7.5-2.6l1.2 1.3q-26.8-2.9-49.9-13.6-22.1-10.7-38.5-28.4l-54.1-59.4q-12.6-8.9-22.7-20.2-10.1-12-17.1-26.6-24-49.9-25.5-109.6-6.7-62.9-5.1-128.2 2.5-66.1 8.5-132.1l1.6-14.8q5.4-57.2 15.2-110.6 10.4-54 25.6-108.7 9.8-33.1 21.4-65.4 12.4-31.9 29.1-62.5l4.4-7q8.6-15.5 18-31.2 10.5-16.2 24-30.1 13.3-14.2 32-24.9 18.6-10.4 44.2-15.5l-1.3 0.6h10.1q37 0.4 63.5 21.2 26.9 20.2 44.6 48.7l48.6 53.7q17.1 18.3 29.1 41.7 12 22.7 17.7 45.4zm404.6 618.9q1.3-43.3-2.8-85.3-4.1-43-9.8-86.2-5.4-45.8-9.5-92-4.1-45.8 0-93.5 1.9-20.2 4.8-40.1 2.5-20.2 6.3-40.4 2.8-19.9 5.4-39.5 2.8-19.6 2.8-39.5 2.2-29.1 0.9-61-0.9-32.2-6.6-62.8-5.4-31.6-16.7-60.1-10.8-28.7-29.1-51.4-18.3-22.8-44.5-37.6-25.9-14.6-61-17.7-27.5 4.7-49.3 20.8-21.8 15.8-40.4 37-18 20.5-34.1 44.2-15.5 23.4-31.3 43.9-34.4 53.4-67.3 106.5-32.9 53.4-65.1 107.1-2.8-12-8.5-24-5.1-12-7.6-24.4-11-49.2-20.5-98.2-8.6-49.3-18.7-99.5-4.7-20.9-15.4-41.1-10.2-20.5-25.3-36.3-15.2-16.4-35.7-25-20.2-8.8-45.8-5-17.4 2.8-30.7 12.3-12.9 9.2-23.7 22.4-10.4 12.7-19.5 27.5-8.3 14.5-16.2 28.1-16.7 29.1-28.4 59.7-10.7 30.7-19.9 61.9-15.8 57.2-26.2 114.4-10.7 57.2-15.5 115.6-6 63.5-7.9 127.6-0.9 63.5 4.4 126.4-0.3 53.4 23.1 103 11.4 24 34.8 38.5 23.6 14.9 52.1 18 21.1 3.8 36-4.1 14.5-8.2 24.3-23 9.5-15.2 13.6-33.5 4.4-18 4.1-34.4 1.3-15.8-0.6-30.7-1.3-15.2-2.2-30.9-1.3-15.2-3.8-30.1-1.9-15.1-1.6-30.9-0.6-17.7 0.6-35.7 1.6-18.3 2.9-36 0-13.9 1.5-26.9 1.3-13.2 1.9-27.1 3.5-13.9 4.1-27.5 0.7-13.9 3.5-27.8v-8.9q5.4 32.2 10.4 63.8 5.4 31.3 9.2 62.9 5.4 31.9 12.3 61.6 7.6 29.7 19.6 59.1 6.6 16.4 17.4 30.9 11.7 13.9 26.2 24 14.5 10.2 31.6 15.5 18 5.1 37.9 3.2 11.4-0.6 20.2-6 9.2-5.7 16.1-13.9 7-7.9 12.4-17.4 5.6-9.5 10.1-18.3 7.2-20.5 15.8-42 8.2-21.2 17.3-41.4 30.4-82.1 68-159.2 37.6-77.7 86.2-151-1.3 25.9-1.6 51.1 0.7 24.4-2.2 50.9-4.7 94.8-2.8 188.3 2.5 93.8 24.9 183.8 5.1 16.5 10.8 32.9 6.3 15.5 20.2 26.5 15.1 5.1 31.9 5.1 16.4-0.6 33.2-1.6 13.2-1.3 26.8-5 13.9-4.2 25.6-11.1 12-7 21.2-16.1 9.4-10.1 15.4-23.4zm-370.8-78.7h-2.6l2.6 0.7z"/></svg>