<svg version="1.2" xmlns="http://www.w3.org/2000/svg" viewBox="0 0 1280 720" width="1280" height="720"><style>.a{fill:#09f}</style><path class="a" d="m182.8 442.1h-0.8l0.8 0.2zm-10.7-171q0.4 3.4 0.8 6.5 0.6 3 1.1 6 4.7-7.5 9.4-14.8 4.7-7.4 9.4-14.9 0.8-1 1.8-2.4 1.3-1.4 2.1-2.4 1-1.5 2.2-3.1 1.2-1.6 2.9-4 4.2-6.3 8.9-12.7 4.9-6.3 10.6-11.6 5.7-5.4 12.6-9.3 6.9-4 15.3-5.5 15.4 1.7 26 8.7 10.7 6.8 17.7 17l17.1 18.6q6.8 7.6 11 17.6 4.3 9.8 6.5 20.5 2.4 10.8 2.9 21.9 0.7 11 0.1 20.9 0 2-0.3 4.6 0 2.6-0.4 4.8-0.4 3.2-0.6 6.2-0.3 2.9-0.9 6.1 0 1.2-0.4 2.6-0.2 1.2-0.2 2.2-1.1 6.3-1.9 12.5-0.9 6.2-1.7 12.5-1.1 13.2-0.2 26.5 1.2 13.3 2.9 26.9l-0.4-0.4 0.8 4.2q1.9 14.3 3.1 28.2 1.3 13.8 0.6 27.5l-0.2 2.6q-2.3 5.3-6.1 9.5-3.9 3.9-8.8 6.7-4.6 2.8-9.9 4.3-5.2 1.6-10.3 2.1h-2.6q-1.8 0-3.7 0.2-1.8 0-4 0-3.4 0-7.3-0.5-3.8-0.6-7.8-1.6-0.8-0.8-1.8-1.4-0.8-0.8-1.6-1.6l-19.5-21.6h-0.4q-3.4-2.4-5.6-4.8-2.2-2.6-3.6-5.2-1.4-2.6-2.2-5.2-0.8-2.6-1.6-5.2 0-0.4-0.2-0.6-0.2-0.2-0.2-0.4-0.2-0.4-0.2-1.4-2.7-11.9-4.9-24.3-1.9-12.5-2.9-25.1-2 5.4-4.3 11-2 5.5-3.7 10.9-2.8 6.3-5.3 12.3-2.3 5.7-4.5 11.3-0.2 0.8-0.6 1.6-0.4 0.6-0.8 1.6h0.4l-0.5 0.6q0 0.4-0.2 0.4 0 0 0 0-1.6 3.5-4 7.1-2.3 3.6-5.3 6.5-3.1 3-6.9 5.2-3.9 1.9-8.7 2.3-0.8 0-2 0.2-1.1 0.2-1.9 0.2-9-0.1-16.7-3.7-7.4-3.8-13.1-10l-4.2-4.6q0.4 0.6 0.6 1.2 0.4 0.4 0.8 1l-10.2-11.6q0.2 3.7 0.2 7.7-0.1 3.8 0.3 8.2 0 1.2 0 3.2 0 1.8-0.4 3.5-0.5 5.8-2.5 11.6-2.1 5.7-5.7 10.5-3.5 4.5-8.8 7.5-5 2.9-11.7 2.9-1.4 0-2.4 0-0.8-0.2-2.4-0.8l0.4 0.4q-8.5-0.9-15.8-4.3-7-3.4-12.2-9l-17.1-18.8q-4-2.8-7.2-6.4-3.2-3.8-5.4-8.4-7.6-15.8-8.1-34.7-2.1-19.9-1.6-40.6 0.8-20.9 2.7-41.8l0.5-4.7q1.7-18.1 4.8-35 3.3-17.1 8.1-34.4 3.1-10.5 6.8-20.7 3.9-10.1 9.2-19.8l1.4-2.2q2.7-4.9 5.7-9.9 3.3-5.1 7.6-9.5 4.2-4.5 10.1-7.9 5.9-3.3 14-4.9l-0.4 0.2h3.2q11.7 0.1 20.1 6.7 8.5 6.4 14.1 15.4l15.4 17q5.4 5.8 9.2 13.2 3.8 7.2 5.6 14.4zm128.1 195.9q0.4-13.7-0.9-27-1.3-13.6-3.1-27.3-1.7-14.5-3-29.1-1.3-14.5 0-29.6 0.6-6.4 1.5-12.7 0.8-6.4 2-12.8 0.9-6.3 1.7-12.5 0.9-6.2 0.9-12.5 0.7-9.2 0.3-19.3-0.3-10.2-2.1-19.9-1.7-10-5.3-19-3.4-9.1-9.2-16.3-5.8-7.2-14.1-11.9-8.2-4.6-19.3-5.6-8.7 1.5-15.6 6.6-6.9 5-12.8 11.7-5.7 6.5-10.8 14-4.9 7.4-9.9 13.9-10.9 16.9-21.3 33.7-10.4 16.9-20.6 33.9-0.9-3.8-2.7-7.6-1.6-3.8-2.4-7.7-3.5-15.6-6.5-31.1-2.7-15.6-5.9-31.5-1.5-6.6-4.9-13-3.2-6.5-8-11.5-4.8-5.2-11.3-7.9-6.4-2.8-14.5-1.6-5.5 0.9-9.7 3.9-4.1 2.9-7.5 7.1-3.3 4-6.2 8.7-2.6 4.6-5.1 8.9-5.3 9.2-9 18.9-3.4 9.7-6.3 19.6-5 18.1-8.3 36.2-3.4 18.1-4.9 36.6-1.9 20.1-2.5 40.4-0.3 20.1 1.4 40-0.1 16.9 7.3 32.6 3.6 7.6 11 12.2 7.5 4.7 16.5 5.7 6.7 1.2 11.4-1.3 4.6-2.6 7.7-7.3 3-4.8 4.3-10.6 1.4-5.7 1.3-10.9 0.4-5-0.2-9.7-0.4-4.8-0.7-9.8-0.4-4.8-1.2-9.5-0.6-4.8-0.5-9.8-0.2-5.6 0.2-11.3 0.5-5.8 0.9-11.4 0-4.4 0.5-8.5 0.4-4.2 0.6-8.6 1.1-4.4 1.3-8.7 0.2-4.4 1.1-8.8v-2.8q1.7 10.2 3.3 20.2 1.7 9.9 2.9 19.9 1.7 10.1 3.9 19.5 2.4 9.4 6.2 18.7 2.1 5.2 5.5 9.8 3.7 4.4 8.3 7.6 4.6 3.2 10 4.9 5.7 1.6 12 1 3.6-0.2 6.4-1.9 2.9-1.8 5.1-4.4 2.2-2.5 3.9-5.5 1.8-3 3.2-5.8 2.3-6.5 5-13.3 2.6-6.7 5.5-13.1 9.6-26 21.5-50.4 11.9-24.6 27.3-47.8-0.4 8.2-0.5 16.2 0.2 7.7-0.7 16.1-1.5 30-0.9 59.6 0.8 29.7 7.9 58.2 1.6 5.2 3.4 10.4 2 4.9 6.4 8.4 4.8 1.6 10.1 1.6 5.2-0.2 10.5-0.5 4.2-0.4 8.5-1.6 4.4-1.3 8.1-3.5 3.8-2.2 6.7-5.1 3-3.2 4.9-7.4z"/><path class="a" d="m529.3 392.2c0-54-37.8-88-86.5-88-48.3 0-86.4 34-86.4 88 0 54.3 36.8 88.6 85.2 88.6 48.7 0 87.7-34.3 87.7-88.6zm-143.9 0c0-43 27.2-63.3 57.1-63.3 29.3 0 57.7 20.3 57.7 63.3 0 43.4-29 63.6-58.6 63.6-29.7 0-56.2-20.2-56.2-63.6zm161-85.2l67.1 171h33.1l67-171h-30.2l-53.1 144.8-53.3-144.8zm195.3 171h28.4v-171h-28.4zm14.6-198.7c10.3 0 18.8-8.4 18.8-19.3 0-11-8.5-19.4-18.8-19.4-10.9 0-19.3 8.4-19.3 19.4 0 10.9 8.4 19.3 19.3 19.3zm134.8 49c29.3 0 54.3 18.4 54 51.8h-108c3.2-33.4 26.3-51.8 54-51.8zm79.9 97h-30.6c-6.2 18.4-22.5 31.5-48 31.5-29 0-53.4-19-55.6-53.6h136.7c0.6-6 0.9-11 0.9-17.2 0-46.8-32.4-81.7-82-81.7-50 0-84.6 34-84.6 87.9 0 54.3 35.9 88.6 84.6 88.6 42.4 0 69.8-24.3 78.6-55.5zm40.9 52.7h28.3v-75.5l67.1 75.5h38.7l-80.8-85.8 80.5-85.1h-39.6l-65.9 75.8v-135.7h-28.3zm160.6 0h28.4v-171h-28.4zm14.7-198.7c10.3 0 18.7-8.4 18.7-19.4 0-10.9-8.4-19.3-18.7-19.3-10.9 0-19.4 8.4-19.4 19.3 0 11 8.5 19.4 19.4 19.4z"/></svg>